<svg width="16" height="16" viewBox="0 0 16 16" fill="none" xmlns="[http://www.w3.org/2000/svg">](http://www.w3.org/2000/svg">)
  <path d="M8 0C3.58 0 0 3.58 0 8s3.58 8 8 8 8-3.58 8-8-3.58-8-8-8zm0 14.93c-3.95 0-7.14-3.19-7.14-7.14 0-3.95 3.19-7.14 7.14-7.14 3.95 0 7.14 3.19 7.14 7.14 0 3.95-3.19 7.14-7.14 7.14z" fill="#666"/>
  <path d="M8 10.93c-1.43 0-2.6-1.17-2.6-2.6s1.17-2.6 2.6-2.6 2.6 1.17 2.6 2.6-1.17 2.6-2.6 2.6z" fill="#666"/>
  <path d="M8 6.07c-1.43 0-2.6-1.17-2.6-2.6s1.17-2.6 2.6-2.6 2.6 1.17 2.6 2.6-1.17 2.6-2.6 2.6z" fill="#666"/>
</svg>